<svg width="100%" height="100%" id="svg" viewBox="0 0 1440 590" xmlns="http://www.w3.org/2000/svg" class="transition duration-300 ease-in-out delay-150"><defs><linearGradient id="gradient" x1="0%" y1="50%" x2="100%" y2="50%"><stop offset="5%" stop-color="#F78DA7"></stop><stop offset="95%" stop-color="#8ED1FC"></stop></linearGradient></defs><path d="M 0,600 C 0,600 0,200 0,200 C 118.22009569377991,217.64593301435406 236.44019138755982,235.29186602870814 330,225 C 423.5598086124402,214.70813397129186 492.45933014354057,176.47846889952154 591,153 C 689.5406698564594,129.52153110047846 817.7224880382777,120.79425837320574 909,126 C 1000.2775119617223,131.20574162679426 1054.6507177033493,150.3444976076555 1137,165 C 1219.3492822966507,179.6555023923445 1329.6746411483255,189.82775119617224 1440,200 C 1440,200 1440,600 1440,600 Z" stroke="none" stroke-width="0" fill="url(#gradient)" fill-opacity="0.53" class="transition-all duration-300 ease-in-out delay-150 path-0"></path><defs><linearGradient id="gradient" x1="0%" y1="50%" x2="100%" y2="50%"><stop offset="5%" stop-color="#F78DA7"></stop><stop offset="95%" stop-color="#8ED1FC"></stop></linearGradient></defs><path d="M 0,600 C 0,600 0,400 0,400 C 75.09090909090907,380.688995215311 150.18181818181813,361.37799043062205 256,349 C 361.81818181818187,336.62200956937795 498.3636363636364,331.17703349282294 600,343 C 701.6363636363636,354.82296650717706 768.3636363636365,383.9138755980861 860,384 C 951.6363636363635,384.0861244019139 1068.1818181818182,355.16746411483257 1169,353 C 1269.8181818181818,350.83253588516743 1354.909090909091,375.4162679425837 1440,400 C 1440,400 1440,600 1440,600 Z" stroke="none" stroke-width="0" fill="url(#gradient)" fill-opacity="1" class="transition-all duration-300 ease-in-out delay-150 path-1"></path></svg>